<?xml version="1.0" standalone="no"?>
<!DOCTYPE svg PUBLIC "-//W3C//DTD SVG 20010904//EN"
 "http://www.w3.org/TR/2001/REC-SVG-20010904/DTD/svg10.dtd">
<svg version="1.0" xmlns="http://www.w3.org/2000/svg"
 width="500.000000pt" height="500.000000pt" viewBox="0 0 500.000000 500.000000"
 preserveAspectRatio="xMidYMid meet">

<g transform="translate(0.000000,500.000000) scale(0.100000,-0.100000)"
fill="#000000" stroke="none">
<path d="M760 2500 l0 -480 1740 0 1740 0 0 480 0 480 -1740 0 -1740 0 0 -480z
m3450 0 l0 -450 -1715 0 -1715 0 0 450 0 450 1715 0 1715 0 0 -450z"/>
<path d="M850 2500 l0 -390 1640 0 1640 0 0 390 0 390 -1640 0 -1640 0 0 -390z
m1486 109 c19 -18 34 -37 34 -41 0 -16 -33 -7 -62 17 -66 55 -158 12 -158 -75
0 -90 99 -133 161 -71 42 42 37 51 -26 51 -42 0 -55 3 -55 15 0 12 15 15 76
15 l77 0 -7 -32 c-14 -70 -63 -111 -131 -111 -104 0 -167 109 -117 202 42 78
144 92 208 30z m-996 16 c0 -12 -13 -15 -60 -15 l-60 0 0 -40 0 -40 55 0 c42
0 55 -3 55 -15 0 -12 -13 -15 -55 -15 l-55 0 0 -45 0 -45 65 0 c51 0 65 -3 65
-15 0 -12 -16 -15 -85 -15 l-85 0 0 130 0 130 80 0 c64 0 80 -3 80 -15z m203
-82 l67 -97 0 97 c0 90 1 97 20 97 19 0 20 -7 20 -130 0 -167 -9 -170 -106
-32 l-69 97 -3 -97 c-2 -78 -6 -98 -17 -98 -12 0 -15 23 -15 130 0 165 8 168
103 33z m247 -18 l0 -115 60 0 c47 0 60 -3 60 -15 0 -12 -16 -15 -80 -15 l-80
0 0 130 c0 123 1 130 20 130 19 0 20 -7 20 -115z m230 -15 c0 -109 -2 -130
-15 -130 -13 0 -15 21 -15 130 0 109 2 130 15 130 13 0 15 -21 15 -130z m480
75 l0 -55 70 0 70 0 0 55 c0 42 3 55 15 55 13 0 15 -21 15 -130 0 -107 -3
-130 -15 -130 -10 0 -15 15 -17 58 l-3 57 -67 3 -68 3 0 -61 c0 -53 -2 -60
-20 -60 -19 0 -20 7 -20 130 0 123 1 130 20 130 18 0 20 -7 20 -55z m460 40
c0 -11 -12 -15 -45 -15 l-45 0 0 -115 c0 -108 -1 -115 -20 -115 -19 0 -20 7
-20 115 l0 115 -40 0 c-29 0 -40 4 -40 15 0 12 18 15 105 15 87 0 105 -3 105
-15z m240 0 c0 -12 -14 -15 -65 -15 l-65 0 0 -40 0 -40 60 0 c47 0 60 -3 60
-15 0 -12 -13 -15 -60 -15 l-60 0 0 -45 0 -45 65 0 c51 0 65 -3 65 -15 0 -12
-16 -15 -80 -15 l-80 0 0 130 0 130 80 0 c64 0 80 -3 80 -15z m197 -82 l68
-98 3 98 c2 77 6 97 17 97 12 0 15 -23 15 -131 0 -161 -6 -163 -99 -32 l-66
91 -3 -94 c-2 -86 -4 -94 -22 -94 -19 0 -20 7 -20 130 0 122 1 130 20 130 13
0 40 -31 87 -97z m284 62 c23 -39 32 -38 54 6 13 25 21 29 55 29 22 0 40 -2
40 -5 0 -3 -16 -29 -35 -58 -19 -28 -35 -56 -35 -62 0 -6 11 -26 23 -45 13
-19 32 -47 42 -62 l17 -28 -44 0 c-41 0 -46 3 -64 35 -10 19 -22 35 -25 35 -4
0 -17 -16 -29 -35 -19 -31 -26 -35 -66 -35 l-44 0 44 66 45 67 -33 51 c-18 28
-36 57 -40 64 -5 9 4 12 34 12 36 0 43 -4 61 -35z"/>
</g>
</svg>
