<?xml version="1.0" standalone="no"?>
<!DOCTYPE svg PUBLIC "-//W3C//DTD SVG 20010904//EN"
 "http://www.w3.org/TR/2001/REC-SVG-20010904/DTD/svg10.dtd">
<svg version="1.0" xmlns="http://www.w3.org/2000/svg"
 width="500.000000pt" height="500.000000pt" viewBox="0 0 500.000000 500.000000"
 preserveAspectRatio="xMidYMid meet">

<g transform="translate(0.000000,500.000000) scale(0.100000,-0.100000)"
fill="#000000" stroke="none">
<path d="M760 2500 l0 -480 1740 0 1740 0 0 480 0 480 -1740 0 -1740 0 0 -480z
m3450 0 l0 -450 -1715 0 -1715 0 0 450 0 450 1715 0 1715 0 0 -450z"/>
<path d="M850 2500 l0 -390 1640 0 1640 0 0 390 0 390 -1640 0 -1640 0 0 -390z
m1444 136 c18 -7 43 -26 55 -42 20 -25 21 -29 6 -32 -9 -2 -28 8 -42 22 -36
37 -100 36 -137 0 -20 -21 -26 -36 -26 -71 0 -90 91 -134 159 -77 46 39 41 54
-19 54 -38 0 -50 4 -50 15 0 12 14 15 70 15 39 0 70 -3 70 -7 0 -33 -26 -86
-51 -107 -43 -37 -125 -37 -168 -1 -76 65 -59 191 33 231 40 17 59 17 100 0z
m-954 -11 c0 -12 -13 -15 -60 -15 l-60 0 0 -40 0 -40 55 0 c42 0 55 -3 55 -15
0 -12 -13 -15 -55 -15 l-55 0 0 -45 0 -45 65 0 c51 0 65 -3 65 -15 0 -12 -16
-15 -85 -15 l-85 0 0 130 0 130 80 0 c64 0 80 -3 80 -15z m200 -83 l65 -94 3
96 c2 88 4 96 22 96 19 0 20 -7 20 -130 0 -166 -8 -168 -105 -31 l-70 100 -3
-100 c-2 -79 -6 -99 -17 -99 -12 0 -15 23 -15 131 0 162 6 164 100 31z m240
-17 l0 -115 65 0 c51 0 65 -3 65 -15 0 -12 -16 -15 -80 -15 l-80 0 0 130 c0
109 2 130 15 130 12 0 15 -19 15 -115z m240 -15 c0 -109 -2 -130 -15 -130 -13
0 -15 21 -15 130 0 109 2 130 15 130 13 0 15 -21 15 -130z m480 75 l0 -55 70
0 70 0 0 55 c0 42 3 55 15 55 13 0 15 -21 15 -130 0 -109 -2 -130 -15 -130
-12 0 -15 13 -15 60 l0 60 -70 0 -70 0 0 -60 c0 -47 -3 -60 -15 -60 -13 0 -15
21 -15 130 0 109 2 130 15 130 12 0 15 -13 15 -55z m460 40 c0 -11 -12 -15
-45 -15 l-45 0 0 -115 c0 -96 -3 -115 -15 -115 -12 0 -15 19 -15 115 l0 115
-45 0 c-33 0 -45 4 -45 15 0 12 18 15 105 15 87 0 105 -3 105 -15z m240 0 c0
-12 -14 -15 -65 -15 l-65 0 0 -40 0 -40 60 0 c47 0 60 -3 60 -15 0 -12 -13
-15 -60 -15 l-60 0 0 -45 0 -45 65 0 c51 0 65 -3 65 -15 0 -12 -16 -15 -80
-15 l-80 0 0 130 0 130 80 0 c64 0 80 -3 80 -15z m198 -87 l72 -102 0 102 c0
84 3 102 15 102 13 0 15 -21 15 -130 0 -108 -3 -130 -15 -130 -8 0 -45 43 -82
96 l-68 97 -3 -97 c-2 -88 -4 -96 -22 -96 -19 0 -20 7 -20 130 0 168 8 170
108 28z m282 67 c24 -39 33 -38 55 6 13 25 21 29 55 29 22 0 40 -2 40 -5 0 -3
-16 -29 -35 -58 -19 -28 -35 -56 -35 -62 0 -6 11 -26 23 -45 13 -19 32 -47 42
-62 l17 -28 -44 0 c-41 0 -46 3 -64 35 -10 19 -22 35 -25 35 -4 0 -17 -16 -29
-35 -19 -31 -26 -35 -66 -35 l-44 0 44 66 45 67 -33 51 c-18 28 -36 57 -40 64
-5 9 3 12 33 12 34 0 42 -4 61 -35z"/>
</g>
</svg>
